<?xml version="1.0" encoding="utf-8"?>
<!-- Generator: Adobe Illustrator 23.0.4, SVG Export Plug-In . SVG Version: 6.00 Build 0)  -->
<svg version="1.1" id="Layer_1" xmlns="http://www.w3.org/2000/svg" xmlns:xlink="http://www.w3.org/1999/xlink" x="0px" y="0px"
	 viewBox="0 0 160 36" style="enable-background:new 0 0 160 36;" xml:space="preserve">
<style type="text/css">
	.st0{fill:#572A86;}
	.st1{fill:#9A7FB6;}
	.st2{fill:none;stroke:#1D1E1C;stroke-width:0.3;}
</style>
<g id="Artwork">
	<g>
		<g>
			<circle class="st0" cx="22.25" cy="18" r="16.5"/>
			<path class="st1" d="M38.75,31.9V4.1c0-4.59-6.63-1.34-8.25-0.39c-4.88,2.86-8.24,8.18-8.24,14.29s3.42,11.55,8.24,14.29
				C32.21,33.25,38.75,36.5,38.75,31.9z"/>
		</g>
		<g>
			<g>
				<path class="st0" d="M128.64,6.15c0.75,0,1.34-0.58,1.34-1.32c0-0.75-0.6-1.34-1.34-1.34c-0.75,0-1.32,0.6-1.32,1.34
					C127.32,5.58,127.89,6.15,128.64,6.15z"/>
				<path class="st0" d="M63.08,8.91c-0.77-0.44-1.66-0.7-2.61-0.7c-2.88,0-5.22,2.34-5.22,5.22s2.34,5.22,5.22,5.22
					c0.95,0,1.84-0.26,2.61-0.7c0.53,0.3,2.61,1.33,2.61-0.12v-8.8C65.69,7.58,63.6,8.6,63.08,8.91z M63.51,15.28
					c-0.68,0.92-1.73,1.43-2.75,1.43c-1.94,0-3.32-1.51-3.32-3.3c0-1.75,1.28-3.3,3.22-3.3c1.21,0,2.24,0.62,2.86,1.43v3.74H63.51z"
					/>
				<path class="st0" d="M117.01,8.91c-0.77-0.44-1.66-0.7-2.61-0.7c-2.88,0-5.22,2.34-5.22,5.22s2.34,5.22,5.22,5.22
					c0.95,0,1.84-0.26,2.61-0.7c0.53,0.3,2.61,1.33,2.61-0.12v-8.8C119.62,7.58,117.53,8.6,117.01,8.91z M117.44,15.28
					c-0.68,0.92-1.73,1.43-2.75,1.43c-1.94,0-3.32-1.51-3.32-3.3c0-1.75,1.28-3.3,3.22-3.3c1.21,0,2.24,0.62,2.86,1.43v3.74H117.44z
					"/>
				<path class="st0" d="M139.63,8.91c-0.77-0.44-1.66-0.7-2.61-0.7c-2.88,0-5.22,2.34-5.22,5.22s2.34,5.22,5.22,5.22
					c0.95,0,1.84-0.26,2.61-0.7c0.53,0.3,2.61,1.33,2.61-0.12v-8.8C142.24,7.58,140.15,8.6,139.63,8.91z M140.06,15.28
					c-0.68,0.92-1.73,1.43-2.75,1.43c-1.94,0-3.32-1.51-3.32-3.3c0-1.75,1.28-3.3,3.22-3.3c1.21,0,2.24,0.62,2.86,1.43L140.06,15.28
					L140.06,15.28z"/>
				<path class="st0" d="M80,13.83c0.11,1.68,1.49,3.03,3.24,3.03c1.01,0,1.7-0.33,2.23-0.74c0.41-0.33,1.01-0.28,1.39,0.08
					l0.58,0.55c-0.75,0.96-2.17,1.88-4.22,1.88c-2.92,0-5.39-2.22-5.39-5.22c0-3.01,2.26-5.22,5.09-5.22c2.79,0,4.82,2.26,4.82,5.22
					c0,0.09,0,0.23-0.02,0.43H80V13.83z M80.03,12.12h5.46c-0.3-1.28-1.45-2.17-2.64-2.17C81.55,9.95,80.38,10.82,80.03,12.12"/>
				<path class="st0" d="M146.62,9.35c0.53-0.51,1.56-1.17,3.01-1.17c2.65,0,4.62,1.48,4.62,5.33v3.9c0,0.55-0.45,1-1,1h-1.19V13.4
					c0-2.17-1.13-3.3-2.6-3.3c-1.32,0-2.18,0.7-2.78,1.43v5.88c0,0.55-0.45,1-1,1h-1.19V9.39c0-0.55,0.45-1,1-1h1.12v0.96H146.62z"
					/>
				<path class="st0" d="M70.81,16.6l5.05-6.34c0.3-0.38,0.47-0.86,0.47-1.34V8.39h-6.97c-0.55,0-1.07,0.41-1.07,0.95v1.54h0.56
					c0.4,0,0.76-0.27,0.88-0.67h3.74l-5.03,6.34c-0.3,0.38-0.47,0.85-0.47,1.34v0.53h7.66c0.6,0,1.08-0.48,1.08-1.08V16.6H70.81z"/>
				<path class="st0" d="M123.44,6.15c0.75,0,1.34-0.58,1.34-1.32c0-0.75-0.6-1.34-1.34-1.34c-0.75,0-1.32,0.6-1.32,1.34
					C122.12,5.58,122.69,6.15,123.44,6.15z"/>
				<path class="st0" d="M121.66,8.39v0.47c0,0.48,0.32,0.87,0.77,0.97l0,0v8.58h1.12c0.6,0,1.08-0.48,1.08-1.08V8.39H121.66z"/>
				<path class="st0" d="M129.83,12.19L129.83,12.19v-3.8h-2.97v0.47c0,0.48,0.32,0.87,0.77,0.97l0,0v8.91
					c0,1.25-0.12,2.09-1.73,3.22l1.26,1.8c2.46-1.72,2.66-3.43,2.66-5.02L129.83,12.19z"/>
				<path class="st0" d="M107.8,13.43c0-3.33-2.85-5.25-5.16-5.25c-1.09,0-2.18,0.32-3.07,1.09V3.28h-1.11
					c-0.59,0-1.08,0.5-1.08,1.08v13.47c0,1.45,1.73,0.41,2.19-0.16c0.17,0.1,1.4,0.98,3.07,0.98
					C105.47,18.64,107.8,16.29,107.8,13.43z M99.57,15.28v-3.75c0.61-0.8,1.63-1.42,2.83-1.43c1.93,0.01,3.21,1.56,3.21,3.3
					c0,2.14-1.73,3.3-3.31,3.3C100.77,16.7,99.81,15.6,99.57,15.28z"/>
				<path class="st0" d="M95.7,8.2c-2.57-0.22-3.19,0.8-3.57,1.34V8.39h-1.11c-0.6,0-1.08,0.48-1.08,1.08v8.94h1.11
					c0.6,0,1.08-0.48,1.08-1.08v-5.55c0.39-0.96,1.46-1.51,2.5-1.51c0.32,0,0.57,0.04,0.81,0.1L95.7,8.2z"/>
			</g>
			<g>
				<polygon class="st0" points="70.65,28.28 72.13,28.28 72.13,32.65 72.69,32.65 72.69,28.28 74.16,28.28 74.16,27.75 
					70.65,27.75 				"/>
				<path class="st0" d="M78.17,27.68c-1.41,0-2.52,1.11-2.52,2.52s1.11,2.52,2.52,2.52c1.41,0,2.52-1.11,2.52-2.52
					C80.69,28.79,79.58,27.68,78.17,27.68z M78.17,32.19c-1.11,0-1.97-0.87-1.97-1.98c0-1.11,0.87-1.98,1.97-1.98
					s1.97,0.87,1.97,1.98C80.14,31.31,79.27,32.19,78.17,32.19z"/>
				<path class="st0" d="M85.7,30.98c0,0.75-0.48,1.21-1.27,1.21c-0.79,0-1.27-0.45-1.27-1.21v-3.23h-0.55v3.23
					c0,1.04,0.73,1.74,1.82,1.74s1.82-0.7,1.82-1.74v-3.23H85.7V30.98z"/>
				<path class="st0" d="M91.91,29.24c0-0.82-0.67-1.49-1.49-1.49h-1.95v4.89h0.55v-1.93h1.33l1.13,1.93h0.64l-1.19-2.02
					C91.51,30.42,91.91,29.87,91.91,29.24z M89.02,28.28h1.4c0.52,0,0.94,0.43,0.94,0.96c0,0.52-0.42,0.95-0.94,0.95h-1.4V28.28z"/>
				<rect x="93.9" y="27.75" class="st0" width="0.55" height="4.89"/>
				<path class="st0" d="M98.23,29.89c-0.67-0.22-1.08-0.38-1.08-0.87c0-0.48,0.39-0.81,0.96-0.81c0.67,0,0.98,0.41,1.12,0.75
					l0.04,0.1l0.47-0.26l-0.03-0.08c-0.27-0.66-0.87-1.05-1.6-1.05c-0.9,0-1.52,0.56-1.52,1.36c0,0.88,0.75,1.12,1.56,1.39
					c0.78,0.25,1.15,0.45,1.15,0.91c0,0.53-0.41,0.84-1.08,0.84c-0.69,0-1.16-0.31-1.32-0.88l-0.03-0.12l-0.48,0.28l0.02,0.07
					c0.24,0.74,0.92,1.18,1.81,1.18c0.98,0,1.64-0.56,1.64-1.39C99.85,30.43,99.02,30.16,98.23,29.89z"/>
				<polygon class="st0" points="104.03,30.44 102.41,27.75 101.81,27.75 101.81,32.65 102.36,32.65 102.36,28.72 103.95,31.36 
					104.12,31.36 105.71,28.72 105.71,32.65 106.25,32.65 106.25,27.75 105.65,27.75 				"/>
				<path class="st0" d="M114.62,30.1c0.32-0.23,0.5-0.6,0.5-1.01c0-0.73-0.6-1.33-1.33-1.33h-1.97v4.89h2.12
					c0.76,0,1.38-0.62,1.38-1.38C115.32,30.78,115.05,30.33,114.62,30.1z M113.94,32.12h-1.57v-1.7h1.57c0.46,0,0.83,0.38,0.83,0.85
					C114.77,31.74,114.4,32.12,113.94,32.12z M113.78,29.89h-1.42v-1.61h1.42c0.43,0,0.78,0.36,0.78,0.8
					C114.57,29.53,114.22,29.89,113.78,29.89z"/>
				<path class="st0" d="M119.56,27.68c-1.41,0-2.52,1.11-2.52,2.52s1.11,2.52,2.52,2.52c1.41,0,2.52-1.11,2.52-2.52
					C122.08,28.79,120.98,27.68,119.56,27.68z M119.56,32.19c-1.11,0-1.97-0.87-1.97-1.98c0-1.11,0.87-1.98,1.97-1.98
					s1.97,0.87,1.97,1.98C121.53,31.31,120.67,32.19,119.56,32.19z"/>
				<path class="st0" d="M125.58,27.75h-0.51l-1.9,4.89h0.58l0.46-1.2h2.22l0.46,1.2h0.58l-1.87-4.83L125.58,27.75z M126.23,30.92
					h-1.81l0.91-2.36L126.23,30.92z"/>
				<path class="st0" d="M132.67,29.24c0-0.82-0.67-1.49-1.49-1.49h-1.95v4.89h0.55v-1.93h1.33l1.13,1.93h0.64l-1.19-2.02
					C132.27,30.42,132.67,29.87,132.67,29.24z M129.78,28.28h1.4c0.52,0,0.94,0.43,0.94,0.96c0,0.52-0.42,0.95-0.94,0.95h-1.4V28.28
					z"/>
				<path class="st0" d="M136.53,27.75h-1.86v4.89h1.86c1.32,0,2.31-1.05,2.31-2.45C138.84,28.81,137.85,27.75,136.53,27.75z
					 M136.53,32.12h-1.31v-3.83h1.31c1.01,0,1.77,0.82,1.77,1.92C138.3,31.29,137.54,32.12,136.53,32.12z"/>
			</g>
		</g>
	</g>
</g>
<g id="Minimum_Clear_Space">
</g>
<g id="Print_Info.">
	<polyline class="st2" points="500.95,273.12 500.95,315.64 458.43,315.64 	"/>
</g>
</svg>
