<svg width="144" height="38" viewBox="0 0 144 38" fill="none" xmlns="http://www.w3.org/2000/svg">
<rect width="144" height="37.128" rx="18.564" fill="white"/>
<g clip-path="url(#clip0_946_3250)">
<path d="M19.3156 26.6517H16V8H19.3156V19.3723L24.0044 14.1656H28.2789L23.3573 19.1652L28.7455 26.6517H24.7038L20.9483 21.367L19.3156 23.0243V26.6517Z" fill="black"/>
<path d="M40.2984 25.3041C40.0738 25.4764 39.7928 25.6579 39.4564 25.8477C39.12 26.0384 38.7313 26.2148 38.2903 26.3789C37.8504 26.543 37.3663 26.6763 36.8402 26.7809C36.3131 26.8845 35.7654 26.9368 35.1952 26.9368C34.1933 26.9368 33.2867 26.7686 32.4755 26.4312C31.6632 26.0948 30.9689 25.6323 30.3905 25.0457C29.8121 24.4591 29.367 23.7679 29.0563 22.9731C28.7455 22.1793 28.5897 21.3322 28.5897 20.4348C28.5897 19.5375 28.7537 18.6688 29.0819 17.8832C29.4101 17.0977 29.8634 16.4157 30.4418 15.8362C31.0202 15.2578 31.7155 14.8004 32.5267 14.463C33.338 14.1267 34.2271 13.9574 35.1952 13.9574C36.2136 13.9574 37.1253 14.1256 37.9283 14.463C38.7313 14.7994 39.4092 15.2578 39.962 15.8362C40.5148 16.4147 40.9332 17.0966 41.2183 17.8832C41.5034 18.6688 41.6459 19.52 41.6459 20.4348C41.6459 20.6245 41.6367 20.8194 41.6203 21.0173C41.6029 21.2163 41.5772 21.4101 41.5424 21.5998L32.0868 21.5742C32.2939 22.4028 32.7042 23.0295 33.3174 23.452C33.9307 23.8755 34.6425 24.0868 35.4547 24.0868C35.9039 24.0868 36.3008 24.0478 36.6464 23.9699C36.992 23.8919 37.2945 23.7925 37.553 23.6725C37.8124 23.5515 38.0319 23.4304 38.2134 23.3094C38.3949 23.1884 38.5375 23.0766 38.6411 22.9731L40.2994 25.3041H40.2984ZM38.278 19.4503C38.2432 18.6391 37.9673 17.9868 37.4494 17.4946C36.9315 17.0023 36.2146 16.7562 35.2998 16.7562C34.4363 16.7562 33.7154 16.9941 33.137 17.4689C32.5585 17.9438 32.1822 18.6042 32.0099 19.4503H38.2791H38.278Z" fill="black"/>
<path d="M47.0332 26.6517H43.7176V14.1657H46.5676L46.7234 16.108C47.2239 15.4517 47.8198 14.9205 48.511 14.5154C49.2012 14.1093 49.9621 13.9062 50.7908 13.9062C51.6194 13.9062 52.3968 14.0528 53.0183 14.3462C53.6398 14.6405 54.1495 15.0415 54.5463 15.5512C54.9432 16.0609 55.2365 16.6649 55.4273 17.3643C55.617 18.0638 55.7124 18.8196 55.7124 19.6308V26.6507H52.3968V19.9416C52.3968 19.5272 52.3578 19.1386 52.2799 18.7755C52.2019 18.4125 52.0727 18.0976 51.8912 17.8299C51.7097 17.5623 51.4635 17.351 51.1528 17.1951C50.8421 17.0392 50.4441 16.9623 49.9611 16.9623C49.5468 16.9623 49.1581 17.0485 48.7951 17.2218C48.432 17.3941 48.1213 17.632 47.8628 17.9346C47.6034 18.2371 47.4003 18.5868 47.2537 18.9837C47.107 19.3816 47.0332 19.8041 47.0332 20.2533V26.6517Z" fill="black"/>
<path d="M68.2487 25.1749C67.696 25.7277 67.0652 26.1553 66.3576 26.4568C65.649 26.7583 64.8634 26.9101 63.9999 26.9101C63.1364 26.9101 62.2595 26.7378 61.4739 26.3922C60.6884 26.0466 60.0054 25.581 59.428 24.9934C58.8496 24.4068 58.3922 23.7196 58.0548 22.9341C57.7184 22.1485 57.5492 21.3065 57.5492 20.4081C57.5492 19.5098 57.7174 18.6688 58.0548 17.8822C58.3911 17.0966 58.8485 16.4105 59.428 15.8229C60.0064 15.2363 60.6884 14.7697 61.4739 14.4241C62.2595 14.0784 63.1015 13.9061 63.9999 13.9061C64.7772 13.9061 65.4931 14.0354 66.1494 14.2948C66.8058 14.5543 67.3842 14.9081 67.8847 15.3573L67.9103 8H71.2003V26.6517H68.3503L68.2467 25.1749H68.2487ZM60.8668 20.4081C60.8668 20.8922 60.9612 21.3537 61.1519 21.7937C61.3416 22.2336 61.6011 22.6182 61.9293 22.9464C62.2575 23.2746 62.6369 23.534 63.0687 23.7237C63.5004 23.9145 63.9578 24.0088 64.4419 24.0088C64.9598 24.0088 65.4346 23.9145 65.8664 23.7237C66.2981 23.534 66.6735 23.2797 66.9935 22.9597C67.3134 22.6408 67.5585 22.2603 67.7319 21.8203C67.9041 21.3804 67.9913 20.9096 67.9913 20.4081C67.9913 19.9066 67.9011 19.4369 67.7195 18.996C67.538 18.556 67.2919 18.1755 66.9811 17.8566C66.6704 17.5376 66.2992 17.2823 65.8674 17.0925C65.4356 16.9028 64.9608 16.8074 64.4429 16.8074C63.9589 16.8074 63.5015 16.9028 63.0697 17.0925C62.6379 17.2833 62.2575 17.5417 61.9303 17.8699C61.6021 18.1981 61.3427 18.5786 61.1529 19.0093C60.9622 19.441 60.8678 19.9077 60.8678 20.4081" fill="black"/>
<path d="M84.8277 25.3041C84.6031 25.4764 84.3221 25.6579 83.9858 25.8477C83.6494 26.0384 83.2607 26.2148 82.8197 26.3789C82.3798 26.543 81.8957 26.6763 81.3686 26.7809C80.8414 26.8845 80.2938 26.9368 79.7236 26.9368C78.7216 26.9368 77.815 26.7686 77.0038 26.4312C76.1916 26.0948 75.4973 25.6323 74.9189 25.0457C74.3394 24.4591 73.8954 23.7679 73.5846 22.9731C73.2739 22.1793 73.118 21.3322 73.118 20.4348C73.118 19.5375 73.2821 18.6688 73.6103 17.8832C73.9385 17.0977 74.3917 16.4157 74.9702 15.8362C75.5486 15.2568 76.2439 14.8004 77.0551 14.463C77.8663 14.1267 78.7555 13.9574 79.7236 13.9574C80.742 13.9574 81.6537 14.1256 82.4567 14.463C83.2597 14.7994 83.9376 15.2578 84.4903 15.8362C85.0431 16.4147 85.4615 17.0966 85.7466 17.8832C86.0317 18.6688 86.1743 19.52 86.1743 20.4348C86.1743 20.6245 86.1651 20.8194 86.1487 21.0173C86.1312 21.2163 86.1056 21.4101 86.0707 21.5998L76.6151 21.5742C76.8223 22.4028 77.2325 23.0295 77.8458 23.452C78.458 23.8755 79.1708 24.0868 79.983 24.0868C80.4322 24.0868 80.8291 24.0478 81.1747 23.9699C81.5203 23.8919 81.8219 23.7925 82.0813 23.6725C82.3408 23.5515 82.5603 23.4304 82.7418 23.3094C82.9233 23.1884 83.0659 23.0766 83.1694 22.9731L84.8277 25.3041ZM82.8074 19.4503C82.7725 18.6391 82.4967 17.9868 81.9788 17.4946C81.4609 17.0023 80.744 16.7562 79.8292 16.7562C78.9657 16.7562 78.2447 16.9941 77.6663 17.4689C77.0879 17.9438 76.7115 18.6042 76.5392 19.4503H82.8084H82.8074Z" fill="black"/>
<path d="M101.07 26.341C101.07 27.3081 100.928 28.2065 100.643 29.0351C100.358 29.8638 99.9259 30.5806 99.3475 31.1847C98.7691 31.7887 98.0482 32.2635 97.1846 32.6092C96.3211 32.9548 95.311 33.1271 94.1541 33.1271C93.4291 33.1271 92.742 33.0532 92.0948 32.9066C91.4467 32.7599 90.8601 32.5733 90.3329 32.3497C89.8058 32.1251 89.3525 31.8831 88.9731 31.6246C88.5926 31.3652 88.3249 31.1231 88.1701 30.8996L90.1135 28.4905C90.2335 28.629 90.4201 28.7839 90.6704 28.9572C90.9206 29.1295 91.218 29.2936 91.5636 29.4494C91.9092 29.6053 92.2928 29.7345 92.7163 29.8381C93.1389 29.9417 93.5757 29.994 94.0249 29.994C94.5603 29.994 95.0566 29.9253 95.514 29.7868C95.9714 29.6484 96.3642 29.4371 96.6924 29.152C97.0206 28.8669 97.279 28.4998 97.4698 28.0506C97.6595 27.6014 97.7549 27.0743 97.7549 26.4702V25.2272C97.237 25.6764 96.6544 26.0261 96.0063 26.2764C95.3581 26.5266 94.6464 26.6517 93.869 26.6517C92.9881 26.6517 92.1553 26.4835 91.3688 26.1461C90.5822 25.8098 89.8961 25.3565 89.3095 24.7863C88.7218 24.2161 88.2603 23.5433 87.9239 22.7659C87.5876 21.9886 87.4183 21.1599 87.4183 20.279C87.4183 19.398 87.5865 18.5694 87.9239 17.792C88.2603 17.0146 88.7228 16.3419 89.3095 15.7717C89.8961 15.2015 90.5832 14.7482 91.3688 14.4118C92.1543 14.0754 92.9881 13.9062 93.869 13.9062C94.75 13.9062 95.4966 14.058 96.2135 14.3595C96.9293 14.662 97.5641 15.0804 98.1169 15.6158L98.2205 14.1646H101.07V26.34V26.341ZM90.7606 20.279C90.7606 20.763 90.8509 21.2163 91.0324 21.6388C91.2139 22.0624 91.4641 22.4285 91.7841 22.7403C92.103 23.051 92.4743 23.2972 92.8979 23.4787C93.3204 23.6602 93.7747 23.7505 94.2577 23.7505C94.7408 23.7505 95.1941 23.6602 95.6176 23.4787C96.0401 23.2972 96.4114 23.051 96.7314 22.7403C97.0503 22.4295 97.3016 22.0624 97.4821 21.6388C97.6636 21.2163 97.7538 20.763 97.7538 20.279C97.7538 19.7949 97.6636 19.3467 97.4821 18.9314C97.3005 18.5171 97.0503 18.154 96.7314 17.8433C96.4114 17.5325 96.0401 17.2864 95.6176 17.1049C95.1941 16.9234 94.7408 16.8331 94.2577 16.8331C93.7747 16.8331 93.3204 16.9234 92.8979 17.1049C92.4743 17.2864 92.103 17.5325 91.7841 17.8433C91.4641 18.154 91.2139 18.5171 91.0324 18.9314C90.8509 19.3457 90.7606 19.7949 90.7606 20.279Z" fill="black"/>
<path d="M114.67 25.3041C114.446 25.4764 114.165 25.6579 113.828 25.8477C113.492 26.0384 113.103 26.2148 112.662 26.3789C112.222 26.543 111.738 26.6763 111.211 26.7809C110.684 26.8845 110.136 26.9368 109.566 26.9368C108.564 26.9368 107.658 26.7686 106.846 26.4312C106.034 26.0948 105.34 25.6323 104.761 25.0457C104.183 24.4591 103.738 23.7679 103.427 22.9731C103.116 22.1793 102.961 21.3322 102.961 20.4348C102.961 19.5375 103.125 18.6688 103.453 17.8832C103.781 17.0977 104.234 16.4157 104.813 15.8362C105.391 15.2578 106.086 14.8004 106.898 14.463C107.709 14.1267 108.598 13.9574 109.566 13.9574C110.584 13.9574 111.496 14.1256 112.299 14.463C113.102 14.7994 113.78 15.2578 114.333 15.8362C114.886 16.4147 115.304 17.0966 115.589 17.8832C115.874 18.6688 116.017 19.52 116.017 20.4348C116.017 20.6245 116.008 20.8194 115.991 21.0173C115.974 21.2163 115.948 21.4101 115.913 21.5998L106.458 21.5742C106.665 22.4028 107.075 23.0295 107.688 23.452C108.301 23.8755 109.013 24.0868 109.826 24.0868C110.275 24.0868 110.672 24.0478 111.017 23.9699C111.363 23.8919 111.664 23.7925 111.924 23.6725C112.183 23.5515 112.403 23.4304 112.584 23.3094C112.766 23.1884 112.908 23.0766 113.012 22.9731L114.67 25.3041ZM112.65 19.4503C112.615 18.6391 112.339 17.9868 111.821 17.4946C111.303 17.0023 110.587 16.7562 109.672 16.7562C108.808 16.7562 108.087 16.9941 107.509 17.4689C106.93 17.9438 106.554 18.6042 106.382 19.4503H112.651H112.65Z" fill="black"/>
<path d="M118.944 14.1657L119.669 10.7978H122.285V14.1657H125.833V16.8598H122.285V21.9373C122.285 22.7147 122.41 23.2541 122.66 23.5566C122.911 23.8592 123.313 24.0099 123.865 24.0099C124.125 24.0099 124.418 23.9802 124.746 23.9197C125.074 23.8592 125.436 23.7864 125.834 23.6992V26.4446C124.746 26.7553 123.762 26.9112 122.882 26.9112C121.639 26.9112 120.671 26.6046 119.981 25.9913C119.289 25.378 118.945 24.4673 118.945 23.2582V16.8598H116.872V14.1657H118.945H118.944Z" fill="black"/>
<path d="M127.544 24.657C127.544 24.3463 127.6 24.0571 127.712 23.7894C127.824 23.5218 127.984 23.289 128.191 23.09C128.398 22.8921 128.635 22.7321 128.904 22.6111C129.172 22.49 129.461 22.4295 129.771 22.4295C130.082 22.4295 130.371 22.49 130.639 22.6111C130.907 22.7321 131.14 22.8921 131.339 23.09C131.536 23.289 131.696 23.5218 131.817 23.7894C131.938 24.0571 131.999 24.3463 131.999 24.657C131.999 24.9678 131.938 25.2621 131.817 25.538C131.696 25.8149 131.532 26.0559 131.325 26.263C131.118 26.4702 130.88 26.6343 130.612 26.7553C130.345 26.8763 130.056 26.9368 129.745 26.9368C129.14 26.9368 128.622 26.7163 128.19 26.2764C127.758 25.8364 127.543 25.297 127.543 24.657" fill="#038768"/>
</g>
<defs>
<clipPath id="clip0_946_3250">
<rect width="116" height="25.128" fill="white" transform="translate(16 8)"/>
</clipPath>
</defs>
</svg>
